# xmcd
#
# Track frame offsets: 
#        150
#        14838
#        30200
#        43453
#        59158
#        73913
#        83270
#        102688
#        117438
#        132005
#        150738
#        165680
#
# Disc length: 2376 seconds
#
# Revision: 3
# Processed by: cddbd v1.5.2PL0 Copyright (c) Steve Scherf et al.
# Submitted via: ExactAudioCopyFreeDBPlugin 1.0
#
DISCID=a809460c
DTITLE=John Cephas and Phil Wiggins - Flip, Flop, and Fly
DYEAR=1992
DGENRE=Blues
TTITLE0=Flip, Flop, And Fly
TTITLE1=No Lovin' Baby Now
TTITLE2=One Kind Favor
TTITLE3=Evil Twin Blues
TTITLE4=Today I Started Loving You Again
TTITLE5=Too Old To Dream
TTITLE6=Darkness On The Delta
TTITLE7=Blue Day Blues
TTITLE8=Standing At Judgement
TTITLE9=The Backbiter
TTITLE10=Devil Got My Woman
TTITLE11=Banks Of The River
EXTD=
EXTT0=
EXTT1=
EXTT2=
EXTT3=
EXTT4=
EXTT5=
EXTT6=
EXTT7=
EXTT8=
EXTT9=
EXTT10=
EXTT11=
PLAYORDER=
